# Blender v2.76 (sub 0) OBJ File: 'TapeCy.blend'
# www.blender.org
mtllib Tape3.mtl
o Cylinder.001
v -3.809333 -0.071322 0.671688
v -3.809333 2.249537 0.671688
v -3.920827 2.198985 -0.085553
v -3.867177 -0.071322 -0.084382
v -1.401946 -0.071322 -3.605097
v -0.671689 -0.071322 -3.809333
v 0.084382 -0.071322 -3.867177
v 0.837209 -0.071322 -3.776409
v 1.557863 -0.071322 -3.540514
v 2.218649 -0.071322 -3.168560
v 2.794174 -0.071322 -2.674840
v 3.262321 -0.071322 -2.078327
v 3.605098 -0.071322 -1.401945
v 3.809333 -0.071322 -0.671687
v 3.867177 -0.071322 0.084384
v 3.776408 -0.071322 0.837211
v 3.540514 -0.071322 1.557866
v 3.168559 -0.071322 2.218652
v 2.674838 -0.071322 2.794176
v 2.078325 -0.071322 3.262322
v 1.401943 -0.071322 3.605098
v 0.671685 -0.071322 3.809334
v 0.523009 -0.071322 2.966146
v 1.091626 -0.071322 2.807118
v 1.618292 -0.071322 2.540214
v 2.082769 -0.071322 2.175691
v 2.467205 -0.071322 1.727558
v 2.756829 -0.071322 1.213035
v 2.940508 -0.071322 0.651897
v 3.011186 -0.071322 0.065706
v 2.966146 -0.071322 -0.523010
v 2.807117 -0.071322 -1.091627
v 2.540214 -0.071322 -1.618294
v 2.175690 -0.071322 -2.082770
v 1.727556 -0.071322 -2.467206
v 1.213034 -0.071322 -2.756829
v 0.651895 -0.071322 -2.940509
v 0.065704 -0.071322 -3.011186
v -0.523011 -0.071322 -2.966145
v -3.776409 -0.071322 -0.837210
v -3.540514 -0.071322 -1.557864
v -3.168560 -0.071322 -2.218649
v -2.674840 -0.071322 -2.794174
v -2.078328 -0.071322 -3.262321
v -1.091628 -0.071322 -2.807117
v -1.618294 -0.071322 -2.540213
v -2.082770 -0.071322 -2.175690
v -2.467206 -0.071322 -1.727556
v -2.756829 -0.071322 -1.213034
v -2.940508 -0.071322 -0.651895
v -3.011186 -0.071322 -0.065704
v -2.966145 -0.071322 0.523012
v -2.807118 -0.071322 1.091624
v -2.540215 -0.071322 1.618291
v -2.175693 -0.071322 2.082767
v -1.727559 -0.071322 2.467204
v -1.213037 -0.071322 2.756828
v -0.651898 -0.071322 2.940508
v -0.065707 -0.071322 3.011186
v -0.084386 -0.071322 3.867177
v -0.837214 -0.071322 3.776408
v -1.557868 -0.071322 3.540513
v -2.218654 -0.071322 3.168558
v -2.794178 -0.071322 2.674836
v -3.262323 -0.071322 2.078323
v -3.605100 -0.071322 1.401940
v -3.537585 2.317778 1.375685
v 3.893809 2.160595 -0.680386
v 2.966146 2.249537 -0.523010
v 3.011186 2.249537 0.065706
v 2.940508 2.249537 0.651897
v 2.756829 2.249537 1.213035
v 2.467205 2.249537 1.727558
v 2.082769 2.249537 2.175691
v 1.618292 2.249537 2.540214
v 1.091626 2.249537 2.807118
v 0.523009 2.249537 2.966146
v -0.065707 2.249537 3.011186
v -0.651898 2.249537 2.940508
v -1.213037 2.249537 2.756828
v -1.727559 2.249537 2.467204
v -2.175693 2.249537 2.082767
v -2.540215 2.249537 1.618291
v -2.807118 2.249537 1.091624
v -2.966145 2.249537 0.523012
v -3.262323 2.249537 2.078323
v -2.838080 2.192284 2.716862
v -2.218654 2.249537 3.168558
v -1.557868 2.249537 3.540513
v -0.837214 2.249537 3.776408
v -0.084386 2.249537 3.867177
v 0.674063 2.236634 3.822823
v 1.401943 2.249537 3.605098
v 2.105522 2.201853 3.305013
v 2.674838 2.249537 2.794176
v 3.200294 2.213041 2.240873
v 3.540514 2.249537 1.557866
v 3.776408 2.249537 0.837211
v 3.832638 2.216244 0.081280
v -3.011186 2.249537 -0.065704
v -2.940508 2.249537 -0.651895
v -2.756829 2.249537 -1.213034
v -2.467206 2.249537 -1.727556
v -2.082770 2.249537 -2.175690
v -1.618294 2.249537 -2.540213
v -1.091628 2.249537 -2.807117
v -0.523011 2.249537 -2.966145
v 0.065704 2.249537 -3.011186
v 0.651895 2.249537 -2.940509
v 1.213034 2.249537 -2.756829
v 1.727556 2.249537 -2.467206
v 2.175690 2.249537 -2.082770
v 2.540214 2.249537 -1.618294
v 2.807117 2.249537 -1.091627
v 3.694195 2.158502 -1.439460
v 3.262321 2.249537 -2.078327
v 2.794174 2.249537 -2.674840
v 2.140177 2.340775 -3.105260
v 1.557863 2.249537 -3.540514
v 0.854777 2.173074 -3.855653
v 0.084382 2.249537 -3.867177
v -0.671689 2.249537 -3.809333
v -1.387339 2.287502 -3.567536
v -2.078328 2.249537 -3.262321
v -2.705853 2.203166 -2.828966
v -3.208229 2.203917 -2.246426
v -3.540514 2.249537 -1.557864
v -3.776409 2.249537 -0.837210
vt 0.744634 0.481734
vt 0.746360 0.575140
vt 0.715517 0.573675
vt 0.714115 0.482273
vt 0.775151 0.481170
vt 0.776778 0.577369
vt 0.161118 0.666552
vt 0.184352 0.666552
vt 0.183068 0.632549
vt 0.159380 0.632549
vt 0.138422 0.666552
vt 0.135832 0.632549
vt 0.684735 0.576085
vt 0.683594 0.482670
vt 0.654214 0.576458
vt 0.653073 0.483043
vt 0.623418 0.574997
vt 0.622552 0.483395
vt 0.592454 0.575193
vt 0.592030 0.483620
vt 0.561761 0.577144
vt 0.561507 0.483722
vt 0.531359 0.578768
vt 0.530984 0.483805
vt 0.500945 0.577384
vt 0.500461 0.483963
vt 0.470423 0.577542
vt 0.469938 0.484122
vt 0.439393 0.574625
vt 0.439415 0.484222
vt 0.408361 0.577527
vt 0.408892 0.484106
vt 0.379086 0.581110
vt 0.378370 0.483933
vt 0.347590 0.577271
vt 0.347847 0.483849
vt 0.317067 0.577187
vt 0.317323 0.483765
vt 0.286036 0.573438
vt 0.286801 0.483599
vt 0.254444 0.573062
vt 0.256280 0.483173
vt 0.223643 0.574588
vt 0.225764 0.482520
vt 0.193107 0.575228
vt 0.195249 0.481831
vt 0.162592 0.574528
vt 0.164734 0.481131
vt 0.131918 0.572355
vt 0.134219 0.480418
vt 0.101175 0.572992
vt 0.103706 0.479604
vt 0.070448 0.570239
vt 0.073195 0.478754
vt 0.039612 0.571143
vt 0.042688 0.477772
vt 0.009063 0.569617
vt 0.012181 0.476765
vt 0.988768 0.476765
vt 0.990937 0.569644
vt 0.960374 0.570858
vt 0.958252 0.477460
vt 0.929859 0.571552
vt 0.927737 0.478154
vt 0.899343 0.572245
vt 0.897222 0.478847
vt 0.868828 0.572938
vt 0.866706 0.479540
vt 0.837924 0.571335
vt 0.836190 0.480201
vt 0.807104 0.574113
vt 0.805671 0.480702
vt 0.685914 0.666552
vt 0.659356 0.666552
vt 0.658841 0.758967
vt 0.685352 0.758967
vt 0.712618 0.666552
vt 0.711926 0.758967
vt 0.632948 0.666552
vt 0.632440 0.758967
vt 0.739465 0.666552
vt 0.738646 0.758967
vt 0.606697 0.666552
vt 0.606117 0.758967
vt 0.766459 0.666552
vt 0.765583 0.758967
vt 0.580595 0.666552
vt 0.579808 0.758967
vt 0.793564 0.666552
vt 0.792628 0.758967
vt 0.554676 0.666552
vt 0.553771 0.758967
vt 0.820680 0.666552
vt 0.819461 0.758967
vt 0.528949 0.666552
vt 0.528015 0.758967
vt 0.847609 0.666552
vt 0.845838 0.758967
vt 0.503401 0.666552
vt 0.502630 0.758967
vt 0.873932 0.666552
vt 0.871408 0.758967
vt 0.478013 0.666552
vt 0.477423 0.758967
vt 0.898958 0.666552
vt 0.895003 0.758967
vt 0.452763 0.666552
vt 0.452255 0.758967
vt 0.116581 0.666552
vt 0.096162 0.666552
vt 0.092464 0.758967
vt 0.113751 0.758967
vt 0.427651 0.666552
vt 0.427083 0.758967
vt 0.136428 0.758967
vt 0.402692 0.666552
vt 0.402112 0.758967
vt 0.159683 0.758967
vt 0.377881 0.666552
vt 0.377344 0.758967
vt 0.183374 0.758967
vt 0.353192 0.666552
vt 0.352814 0.758967
vt 0.207934 0.666552
vt 0.207272 0.758967
vt 0.328629 0.666552
vt 0.328302 0.758967
vt 0.231753 0.666552
vt 0.231200 0.758967
vt 0.304186 0.666552
vt 0.303710 0.758967
vt 0.255744 0.666552
vt 0.255189 0.758967
vt 0.279893 0.666552
vt 0.279400 0.758967
vt 0.230990 0.792131
vt 0.254398 0.792131
vt 0.206848 0.792131
vt 0.181997 0.792131
vt 0.157581 0.792131
vt 0.132668 0.792131
vt 0.108113 0.792131
vt 0.082508 0.792131
vt 0.875459 0.792131
vt 0.903796 0.792131
vt 0.848225 0.792131
vt 0.820779 0.792131
vt 0.793044 0.792131
vt 0.764744 0.792131
vt 0.737032 0.792131
vt 0.711115 0.792131
vt 0.685249 0.792131
vt 0.658254 0.792131
vt 0.631792 0.792131
vt 0.605633 0.792131
vt 0.578540 0.792131
vt 0.551515 0.792131
vt 0.525959 0.792131
vt 0.501637 0.792131
vt 0.477276 0.792131
vt 0.452008 0.792131
vt 0.425931 0.792131
vt 0.400486 0.792131
vt 0.377664 0.792131
vt 0.353018 0.792131
vt 0.328340 0.792131
vt 0.302968 0.792131
vt 0.277449 0.792131
vt 0.206875 0.632549
vt 0.230788 0.632549
vt 0.254821 0.632549
vt 0.278999 0.632549
vt 0.303317 0.632549
vt 0.327766 0.632549
vt 0.352322 0.632549
vt 0.377008 0.632549
vt 0.401834 0.632549
vt 0.426805 0.632549
vt 0.451906 0.632549
vt 0.477124 0.632549
vt 0.502480 0.632549
vt 0.528009 0.632549
vt 0.553739 0.632549
vt 0.579663 0.632549
vt 0.605760 0.632549
vt 0.632021 0.632549
vt 0.658437 0.632549
vt 0.685009 0.632549
vt 0.711767 0.632549
vt 0.738751 0.632549
vt 0.766003 0.632549
vt 0.793588 0.632549
vt 0.821611 0.632549
vt 0.850261 0.632549
vt 0.879763 0.632549
vt 0.910205 0.632549
vt 0.112460 0.632549
vt 0.089417 0.632549
vn -0.711400 -0.685200 0.155900
vn -0.719700 0.682200 0.128800
vn -0.769500 0.638400 -0.016800
vn -0.722500 -0.691100 -0.015700
vn -0.684100 -0.679100 0.266000
vn -0.619500 0.747100 0.240900
vn -0.472700 -0.729800 -0.493800
vn -0.560000 -0.729800 -0.392100
vn 0.593200 -0.689600 0.415400
vn 0.503500 -0.688500 0.521900
vn -0.367300 -0.729800 -0.576500
vn 0.388500 -0.690800 0.609800
vn -0.702400 0.694500 -0.155700
vn -0.706200 -0.687300 -0.169700
vn -0.659300 0.693700 -0.290000
vn -0.669500 -0.687200 -0.281900
vn -0.622000 0.651600 -0.434200
vn -0.597700 -0.691900 -0.405000
vn -0.522900 0.652000 -0.549000
vn -0.490900 -0.691800 -0.529600
vn -0.390400 0.686800 -0.613100
vn -0.373200 -0.685900 -0.624600
vn -0.251400 0.720400 -0.646400
vn -0.265100 -0.681900 -0.681700
vn -0.128300 0.678700 -0.723100
vn -0.136000 -0.684500 -0.716200
vn 0.016100 0.698800 -0.715100
vn -0.003700 -0.688300 -0.725400
vn 0.170800 0.614100 -0.770500
vn 0.155800 -0.694100 -0.702800
vn 0.296300 0.681900 -0.668700
vn 0.331300 -0.685400 -0.648400
vn 0.365900 0.766700 -0.527400
vn 0.421800 -0.677100 -0.602900
vn 0.534200 0.669400 -0.516300
vn 0.511400 -0.683000 -0.521500
vn 0.601700 0.701200 -0.382300
vn 0.598500 -0.688800 -0.409000
vn 0.732300 0.616800 -0.288600
vn 0.659700 -0.698000 -0.278200
vn 0.774000 0.622700 -0.114100
vn 0.711600 -0.696200 -0.093900
vn 0.719100 0.694800 0.013300
vn 0.727300 -0.685400 0.036200
vn 0.715600 0.683900 0.142000
vn 0.713300 -0.684700 0.149500
vn 0.660700 0.692100 0.290600
vn 0.668900 -0.686900 0.284200
vn 0.621400 0.651600 0.435100
vn 0.493500 0.700400 0.515600
vn 0.412300 0.641100 0.647200
vn 0.260200 0.696300 0.668900
vn 0.254800 -0.687700 0.679800
vn 0.128300 0.673700 0.727800
vn 0.126200 -0.687000 0.715600
vn -0.015900 0.688000 0.725500
vn -0.019100 -0.686100 0.727200
vn -0.157500 0.685700 0.710600
vn -0.157500 -0.685700 0.710600
vn -0.293100 0.685700 0.666200
vn -0.293100 -0.685700 0.666200
vn -0.412100 0.695700 0.588400
vn -0.404400 -0.687600 0.603000
vn -0.559700 0.632100 0.535800
vn -0.521500 -0.691900 0.499300
vn -0.616700 0.683400 0.390800
vn -0.630600 -0.685400 0.364100
vn 0.673200 -0.729800 -0.118700
vn 0.683400 -0.729800 0.014900
vn 0.671100 0.741200 0.014600
vn 0.669600 0.726700 -0.153400
vn 0.637100 -0.729800 -0.247700
vn 0.654400 0.712000 -0.254500
vn 0.667400 -0.729800 0.148000
vn 0.659700 0.734100 0.160800
vn 0.576500 -0.729800 -0.367300
vn 0.597800 0.727200 -0.337400
vn 0.625700 -0.729800 0.275300
vn 0.626900 0.733800 0.261800
vn 0.493800 -0.729800 -0.472700
vn 0.483800 0.742600 -0.463100
vn 0.560000 -0.729800 0.392100
vn 0.554800 0.744000 0.372200
vn 0.392100 -0.729800 -0.560000
vn 0.375800 0.734600 -0.564800
vn 0.472700 -0.729800 0.493800
vn 0.452400 0.744200 0.491400
vn 0.275300 -0.729800 -0.625700
vn 0.275300 0.729800 -0.625700
vn 0.367300 -0.729800 0.576500
vn 0.346400 0.729900 0.589200
vn 0.148000 -0.729800 -0.667400
vn 0.148000 0.729800 -0.667400
vn 0.247700 -0.729800 0.637100
vn 0.251400 0.720300 0.646500
vn 0.014900 -0.729800 -0.683400
vn 0.018600 0.731000 -0.682100
vn 0.118700 -0.729800 0.673200
vn 0.130500 0.726100 0.675100
vn -0.118700 -0.729800 -0.673200
vn -0.118100 0.732900 -0.670000
vn -0.014900 -0.729800 0.683400
vn 0.006400 0.736000 0.676900
vn -0.247700 -0.729800 -0.637100
vn -0.236600 0.735100 -0.635300
vn -0.148000 -0.729800 0.667400
vn -0.144000 0.746500 0.649600
vn -0.361000 0.740600 -0.566700
vn -0.275300 -0.729800 0.625700
vn -0.321900 0.725300 0.608500
vn -0.469400 0.737200 -0.485900
vn -0.392100 -0.729800 0.560000
vn -0.406500 0.705300 0.580700
vn -0.552600 0.738200 -0.386900
vn -0.493800 -0.729800 0.472700
vn -0.482000 0.720100 0.499200
vn -0.625700 -0.729800 -0.275300
vn -0.626700 0.733000 -0.264400
vn -0.576500 -0.729800 0.367300
vn -0.556100 0.737100 0.384000
vn -0.667400 -0.729800 -0.148000
vn -0.662000 0.732900 -0.156900
vn -0.637100 -0.729800 0.247700
vn -0.600300 0.756100 0.260600
vn -0.683400 -0.729800 -0.014900
vn -0.665800 0.745100 -0.038700
vn -0.673200 -0.729800 0.118700
vn -0.643100 0.759400 0.098700
usemtl Material.001
s 1
f 1/1/1 2/2/2 3/3/3 4/4/4
f 66/5/5 67/6/6 2/2/2 1/1/1
f 26/7/7 27/8/8 18/9/9 19/10/10
f 25/11/11 26/7/7 19/10/10 20/12/12
f 4/4/4 3/3/3 128/13/13 40/14/14
f 40/14/14 128/13/13 127/15/15 41/16/16
f 41/16/16 127/15/15 126/17/17 42/18/18
f 42/18/18 126/17/17 125/19/19 43/20/20
f 43/20/20 125/19/19 124/21/21 44/22/22
f 44/22/22 124/21/21 123/23/23 5/24/24
f 5/24/24 123/23/23 122/25/25 6/26/26
f 6/26/26 122/25/25 121/27/27 7/28/28
f 7/28/28 121/27/27 120/29/29 8/30/30
f 8/30/30 120/29/29 119/31/31 9/32/32
f 9/32/32 119/31/31 118/33/33 10/34/34
f 10/34/34 118/33/33 117/35/35 11/36/36
f 11/36/36 117/35/35 116/37/37 12/38/38
f 12/38/38 116/37/37 115/39/39 13/40/40
f 13/40/40 115/39/39 68/41/41 14/42/42
f 14/42/42 68/41/41 99/43/43 15/44/44
f 15/44/44 99/43/43 98/45/45 16/46/46
f 16/46/46 98/45/45 97/47/47 17/48/48
f 17/48/48 97/47/47 96/49/49 18/50/9
f 18/50/9 96/49/49 95/51/50 19/52/10
f 19/52/10 95/51/50 94/53/51 20/54/12
f 20/54/12 94/53/51 93/55/52 21/56/53
f 21/56/53 93/55/52 92/57/54 22/58/55
f 22/59/55 92/60/54 91/61/56 60/62/57
f 60/62/57 91/61/56 90/63/58 61/64/59
f 61/64/59 90/63/58 89/65/60 62/66/61
f 62/66/61 89/65/60 88/67/62 63/68/63
f 63/68/63 88/67/62 87/69/64 64/70/65
f 64/70/65 87/69/64 86/71/66 65/72/67
f 65/72/67 86/71/66 67/6/6 66/5/5
f 52/73/68 51/74/69 100/75/70 85/76/71
f 53/77/72 52/73/68 85/76/71 84/78/73
f 51/74/69 50/79/74 101/80/75 100/75/70
f 54/81/76 53/77/72 84/78/73 83/82/77
f 50/79/74 49/83/78 102/84/79 101/80/75
f 55/85/80 54/81/76 83/82/77 82/86/81
f 49/83/78 48/87/82 103/88/83 102/84/79
f 56/89/84 55/85/80 82/86/81 81/90/85
f 48/87/82 47/91/86 104/92/87 103/88/83
f 57/93/88 56/89/84 81/90/85 80/94/89
f 47/91/86 46/95/90 105/96/91 104/92/87
f 58/97/92 57/93/88 80/94/89 79/98/93
f 46/95/90 45/99/94 106/100/95 105/96/91
f 59/101/96 58/97/92 79/98/93 78/102/97
f 45/99/94 39/103/98 107/104/99 106/100/95
f 23/105/100 59/101/96 78/102/97 77/106/101
f 39/103/98 38/107/102 108/108/103 107/104/99
f 24/109/104 23/110/100 77/111/101 76/112/105
f 38/107/102 37/113/106 109/114/107 108/108/103
f 25/11/11 24/109/104 76/112/105 75/115/108
f 37/113/106 36/116/109 110/117/110 109/114/107
f 26/7/7 25/11/11 75/115/108 74/118/111
f 36/116/109 35/119/112 111/120/113 110/117/110
f 27/8/8 26/7/7 74/118/111 73/121/114
f 35/119/112 34/122/115 112/123/116 111/120/113
f 28/124/117 27/8/8 73/121/114 72/125/118
f 34/122/115 33/126/119 113/127/120 112/123/116
f 29/128/121 28/124/117 72/125/118 71/129/122
f 33/126/119 32/130/123 114/131/124 113/127/120
f 30/132/125 29/128/121 71/129/122 70/133/126
f 32/130/123 31/134/127 69/135/128 114/131/124
f 31/134/127 30/132/125 70/133/126 69/135/128
f 70/133/126 71/129/122 98/136/45 99/137/43
f 71/129/122 72/125/118 97/138/47 98/136/45
f 72/125/118 73/121/114 96/139/49 97/138/47
f 73/121/114 74/118/111 95/140/50 96/139/49
f 74/118/111 75/115/108 94/141/51 95/140/50
f 75/115/108 76/112/105 93/142/52 94/141/51
f 76/112/105 77/111/101 92/143/54 93/142/52
f 77/106/101 78/102/97 91/144/56 92/145/54
f 78/102/97 79/98/93 90/146/58 91/144/56
f 79/98/93 80/94/89 89/147/60 90/146/58
f 80/94/89 81/90/85 88/148/62 89/147/60
f 81/90/85 82/86/81 87/149/64 88/148/62
f 82/86/81 83/82/77 86/150/66 87/149/64
f 83/82/77 84/78/73 67/151/6 86/150/66
f 84/78/73 85/76/71 2/152/2 67/151/6
f 85/76/71 100/75/70 3/153/3 2/152/2
f 100/75/70 101/80/75 128/154/13 3/153/3
f 101/80/75 102/84/79 127/155/15 128/154/13
f 102/84/79 103/88/83 126/156/17 127/155/15
f 103/88/83 104/92/87 125/157/19 126/156/17
f 104/92/87 105/96/91 124/158/21 125/157/19
f 105/96/91 106/100/95 123/159/23 124/158/21
f 106/100/95 107/104/99 122/160/25 123/159/23
f 107/104/99 108/108/103 121/161/27 122/160/25
f 108/108/103 109/114/107 120/162/29 121/161/27
f 109/114/107 110/117/110 119/163/31 120/162/29
f 110/117/110 111/120/113 118/164/33 119/163/31
f 111/120/113 112/123/116 117/165/35 118/164/33
f 112/123/116 113/127/120 116/166/37 117/165/35
f 113/127/120 114/131/124 115/167/39 116/166/37
f 114/131/124 69/135/128 68/168/41 115/167/39
f 69/135/128 70/133/126 99/137/43 68/168/41
f 27/8/8 28/124/117 17/169/48 18/9/9
f 28/124/117 29/128/121 16/170/46 17/169/48
f 29/128/121 30/132/125 15/171/44 16/170/46
f 30/132/125 31/134/127 14/172/42 15/171/44
f 31/134/127 32/130/123 13/173/40 14/172/42
f 32/130/123 33/126/119 12/174/38 13/173/40
f 33/126/119 34/122/115 11/175/36 12/174/38
f 34/122/115 35/119/112 10/176/34 11/175/36
f 35/119/112 36/116/109 9/177/32 10/176/34
f 36/116/109 37/113/106 8/178/30 9/177/32
f 37/113/106 38/107/102 7/179/28 8/178/30
f 38/107/102 39/103/98 6/180/26 7/179/28
f 39/103/98 45/99/94 5/181/24 6/180/26
f 45/99/94 46/95/90 44/182/22 5/181/24
f 46/95/90 47/91/86 43/183/20 44/182/22
f 47/91/86 48/87/82 42/184/18 43/183/20
f 48/87/82 49/83/78 41/185/16 42/184/18
f 49/83/78 50/79/74 40/186/14 41/185/16
f 50/79/74 51/74/69 4/187/4 40/186/14
f 51/74/69 52/73/68 1/188/1 4/187/4
f 52/73/68 53/77/72 66/189/5 1/188/1
f 53/77/72 54/81/76 65/190/67 66/189/5
f 54/81/76 55/85/80 64/191/65 65/190/67
f 55/85/80 56/89/84 63/192/63 64/191/65
f 56/89/84 57/93/88 62/193/61 63/192/63
f 57/93/88 58/97/92 61/194/59 62/193/61
f 58/97/92 59/101/96 60/195/57 61/194/59
f 59/101/96 23/105/100 22/196/55 60/195/57
f 23/110/100 24/109/104 21/197/53 22/198/55
f 24/109/104 25/11/11 20/12/12 21/197/53
